<?xml version="1.0" encoding="utf-8"?>
<svg viewBox="0 0 659 440" fill="none" xmlns="http://www.w3.org/2000/svg">
    <path
        d="M 541.75 189.236 C 530.978 182.016 502.68 178.935 482.11 184.454 C 481.006 164.057 470.429 146.866 451.101 131.865 L 443.948 127.086 L 439.179 134.259 C 429.807 148.419 425.853 167.295 427.253 184.454 C 428.357 195.028 432.047 206.907 439.179 215.529 C 412.405 230.991 387.719 227.48 278.408 227.48 L 109.64 227.48 C 109.151 252.054 113.117 299.312 143.307 337.785 C 146.645 342.037 150.297 346.147 154.27 350.106 C 178.818 374.577 215.907 392.52 271.368 392.568 C 355.979 392.646 428.467 347.116 472.566 237.047 C 487.074 237.279 525.381 239.635 544.128 203.578 C 544.586 202.972 548.897 194.021 548.897 194.021 L 541.75 189.242 L 541.75 189.236 Z M 219.782 166.768 L 172.323 166.768 L 172.323 214.007 L 219.782 214.007 L 219.782 166.768 Z M 281.085 166.768 L 233.629 166.768 L 233.629 214.007 L 281.085 214.007 L 281.085 166.768 Z M 342.396 166.768 L 294.94 166.768 L 294.94 214.007 L 342.396 214.007 L 342.396 166.768 Z M 403.711 166.768 L 356.252 166.768 L 356.252 214.007 L 403.711 214.007 L 403.711 166.768 Z M 158.468 166.768 L 111.012 166.768 L 111.012 214.007 L 158.468 214.007 L 158.468 166.768 Z M 219.782 107.103 L 172.323 107.103 L 172.323 154.343 L 219.782 154.343 L 219.782 107.103 Z M 281.085 107.103 L 233.629 107.103 L 233.629 154.343 L 281.085 154.343 L 281.085 107.103 Z M 342.396 107.103 L 294.94 107.103 L 294.94 154.343 L 342.396 154.343 L 342.396 107.103 Z M 342.396 47.432 L 294.94 47.432 L 294.94 94.672 L 342.396 94.672 L 342.396 47.432 Z"
        fill="#1D63ED" style="" />
</svg>